<?xml version="1.0" standalone="no"?>
<!DOCTYPE svg PUBLIC "-//W3C//DTD SVG 20010904//EN"
 "http://www.w3.org/TR/2001/REC-SVG-20010904/DTD/svg10.dtd">
<svg version="1.0" xmlns="http://www.w3.org/2000/svg"
 width="1024.000000pt" height="1024.000000pt" viewBox="0 0 1024.000000 1024.000000"
 preserveAspectRatio="xMidYMid meet">
<metadata>
Created by potrace 1.14, written by Peter Selinger 2001-2017
</metadata>
<g transform="translate(0.000000,1024.000000) scale(0.100000,-0.100000)"
fill="#000000" stroke="none">
<path d="M4890 8690 c-184 -19 -432 -92 -618 -180 -46 -22 -93 -40 -106 -40
-12 0 -48 22 -81 50 -66 56 -120 84 -202 105 -257 67 -524 -114 -566 -384 -19
-123 19 -261 99 -358 49 -60 48 -97 -7 -192 -72 -125 -161 -348 -183 -461 -4
-19 -11 -46 -17 -60 -13 -36 -49 -342 -49 -419 0 -36 7 -131 16 -211 9 -91 13
-176 9 -228 -15 -187 -89 -383 -198 -527 -231 -304 -378 -590 -473 -918 -39
-134 -55 -207 -85 -392 -29 -178 -32 -543 -6 -720 93 -623 338 -1129 753
-1551 240 -245 454 -400 749 -544 196 -96 266 -120 372 -127 209 -14 425 104
522 286 57 108 66 145 66 286 l0 130 -42 85 c-45 90 -100 157 -173 209 -103
74 -167 89 -450 101 -302 14 -317 16 -346 45 l-24 24 0 1013 c1 1011 1 1013
21 1038 l21 25 272 5 271 5 3 35 c14 175 88 336 209 453 176 171 437 235 663
164 258 -81 449 -302 483 -557 5 -41 11 -81 13 -87 3 -10 63 -13 260 -13 l256
0 29 -31 29 -31 0 -1000 c0 -1067 1 -1043 -47 -1063 -10 -4 -115 -11 -233 -16
-291 -11 -368 -22 -458 -65 -183 -85 -292 -262 -292 -474 0 -134 35 -240 115
-349 107 -146 294 -231 478 -218 106 7 176 31 372 127 431 211 793 527 1062
930 100 149 152 245 238 435 54 118 134 364 150 460 4 22 11 54 16 70 18 61
40 244 49 400 14 248 -9 516 -64 769 -17 76 -90 314 -111 361 -8 17 -26 59
-40 95 -72 175 -178 354 -351 595 -92 127 -135 211 -170 327 -38 129 -50 249
-36 383 28 263 10 543 -49 758 -47 174 -139 393 -202 481 -35 49 -29 101 17
161 208 269 78 654 -249 739 -75 20 -145 20 -220 1 -84 -22 -131 -47 -200
-105 -39 -33 -68 -50 -86 -50 -15 0 -69 20 -120 44 -163 75 -270 111 -464 155
-128 29 -418 39 -595 21z m311 -1053 c32 -22 164 -225 206 -319 9 -21 20 -38
25 -38 4 0 8 -4 8 -9 0 -5 36 -71 80 -147 97 -168 121 -238 122 -355 1 -189
-84 -346 -242 -449 -95 -61 -147 -74 -280 -74 -133 0 -185 13 -278 74 -157
101 -246 262 -246 445 0 137 12 167 196 485 147 255 201 346 212 359 43 54
139 67 197 28z m-728 -86 c38 -24 77 -84 77 -115 0 -15 -2 -26 -4 -26 -2 0
-25 10 -51 21 -57 25 -148 22 -191 -6 -36 -23 -48 -8 -35 42 10 38 50 85 81
96 33 12 96 6 123 -12z m1425 5 c39 -20 58 -45 71 -91 13 -50 1 -64 -35 -40
-43 28 -132 31 -187 7 -52 -23 -62 -17 -53 31 17 86 124 134 204 93z"/>
<path d="M4980 7143 c-63 -24 -64 -68 -5 -167 25 -42 45 -79 45 -82 0 -16 55
-83 76 -93 45 -20 73 6 147 136 37 66 67 131 67 145 0 14 -9 33 -21 44 -18 16
-39 19 -158 21 -75 1 -143 0 -151 -4z"/>
<path d="M5035 5240 c-153 -24 -294 -144 -353 -303 -12 -33 -22 -81 -22 -108
l0 -49 460 0 460 0 0 45 c0 25 -9 73 -21 107 -53 158 -197 281 -359 307 -72
12 -92 12 -165 1z"/>
<path d="M4455 4300 c-16 -18 -17 -26 -6 -78 38 -173 88 -269 191 -372 120
-121 247 -183 399 -198 165 -16 333 21 450 99 56 37 181 155 181 170 0 4 6 14
13 21 25 25 78 145 97 219 37 139 26 159 -83 159 -40 0 -77 -4 -84 -8 -7 -4
-19 -39 -28 -77 -37 -168 -142 -292 -300 -356 -83 -33 -234 -34 -315 -2 -94
37 -123 55 -182 113 -66 66 -113 155 -129 244 -6 33 -15 67 -21 74 -7 8 -38
12 -88 12 -64 0 -80 -3 -95 -20z"/>
</g>
</svg>
